<svg width="18" height="18" viewBox="0 0 18 18" fill="none" xmlns="http://www.w3.org/2000/svg">
<path d="M9.71653 0.230512C9.27453 -0.0500644 8.71017 -0.0498004 8.26844 0.231193L1.56559 4.49499C0.425902 5.21996 0.939439 6.98406 2.29017 6.98406H15.7098C17.0612 6.98406 17.5742 5.21856 16.4333 4.49431L9.71653 0.230512Z" fill="#8A96A8"/>
<path d="M8.99998 8.27249C9.35896 8.27249 9.64998 8.56351 9.64998 8.92249V13.805C9.64998 14.164 9.35896 14.455 8.99998 14.455C8.64099 14.455 8.34998 14.164 8.34998 13.805V8.92249C8.34998 8.56351 8.64099 8.27249 8.99998 8.27249Z" fill="#8A96A8"/>
<path d="M0.986877 16.4001C0.986877 16.0411 1.27789 15.7501 1.63688 15.7501H16.3631C16.722 15.7501 17.0131 16.0411 17.0131 16.4001C17.0131 16.7591 16.722 17.0501 16.3631 17.0501H1.63688C1.27789 17.0501 0.986877 16.7591 0.986877 16.4001Z" fill="#8A96A8"/>
<path d="M5.28273 8.92249C5.28273 8.56351 4.99171 8.27249 4.63273 8.27249C4.27374 8.27249 3.98273 8.56351 3.98273 8.92249V13.805C3.98273 14.164 4.27374 14.455 4.63273 14.455C4.99171 14.455 5.28273 14.164 5.28273 13.805V8.92249Z" fill="#8A96A8"/>
<path d="M13.3673 8.27249C13.7263 8.27249 14.0173 8.56351 14.0173 8.92249V13.805C14.0173 14.164 13.7263 14.455 13.3673 14.455C13.0083 14.455 12.7173 14.164 12.7173 13.805V8.92249C12.7173 8.56351 13.0083 8.27249 13.3673 8.27249Z" fill="#8A96A8"/>
</svg>
