<svg width="18" height="18" viewBox="0 0 18 18" fill="none" xmlns="http://www.w3.org/2000/svg">
<path fill-rule="evenodd" clip-rule="evenodd" d="M18 7.64627C18 8.03287 17.6866 8.34627 17.3 8.34627H10.3522C9.96558 8.34627 9.65217 8.03287 9.65217 7.64627V0.699999C9.65217 0.3134 9.96558 0 10.3522 0H15C16.6569 0 18 1.34315 18 3V7.64627ZM12.1811 4.38737C12.1811 4.02838 12.4721 3.73737 12.8311 3.73737H14.8311C15.1901 3.73737 15.4811 4.02838 15.4811 4.38737C15.4811 4.74635 15.1901 5.03737 14.8311 5.03737H12.8311C12.4721 5.03737 12.1811 4.74635 12.1811 4.38737Z" fill="#8A96A8"/>
<path fill-rule="evenodd" clip-rule="evenodd" d="M10.3522 18C9.96558 18 9.65218 17.6866 9.65218 17.3V10.3463C9.65218 9.95967 9.96558 9.64627 10.3522 9.64627H17.3C17.6866 9.64627 18 9.95967 18 10.3463V15C18 16.6569 16.6569 18 15 18H10.3522ZM12.8311 12.0262C12.4721 12.0262 12.1811 12.3173 12.1811 12.6762C12.1811 13.0352 12.4721 13.3262 12.8311 13.3262H14.8311C15.1901 13.3262 15.4811 13.0352 15.4811 12.6762C15.4811 12.3173 15.1901 12.0262 14.8311 12.0262H12.8311ZM12.1811 14.7124C12.1811 14.3534 12.4721 14.0624 12.8311 14.0624H14.8311C15.1901 14.0624 15.4811 14.3534 15.4811 14.7124C15.4811 15.0714 15.1901 15.3624 14.8311 15.3624H12.8311C12.4721 15.3624 12.1811 15.0714 12.1811 14.7124Z" fill="#8A96A8"/>
<path fill-rule="evenodd" clip-rule="evenodd" d="M7.65218 18C8.03878 18 8.35218 17.6866 8.35218 17.3V10.3463C8.35218 9.95967 8.03878 9.64627 7.65218 9.64627H0.7C0.313401 9.64627 0 9.95967 0 10.3463V15C0 16.6569 1.34315 18 3 18H7.65218ZM5.70918 15.2573C5.45534 15.5111 5.04378 15.5111 4.78994 15.2573L4.18885 14.6562L3.58781 15.2572C3.33397 15.511 2.92241 15.511 2.66857 15.2572C2.41473 15.0034 2.41473 14.5918 2.66857 14.338L3.26961 13.7369L2.66862 13.1359C2.41478 12.8821 2.41478 12.4705 2.66862 12.2167C2.92246 11.9629 3.33402 11.9629 3.58786 12.2167L4.18885 12.8177L4.78989 12.2166C5.04373 11.9628 5.45529 11.9628 5.70913 12.2166C5.96297 12.4705 5.96297 12.882 5.70913 13.1359L5.10809 13.7369L5.70918 14.338C5.96302 14.5919 5.96302 15.0034 5.70918 15.2573Z" fill="#8A96A8"/>
<path fill-rule="evenodd" clip-rule="evenodd" d="M0.7 8.34627C0.313401 8.34627 0 8.03287 0 7.64627V3C0 2.89645 0.00524668 2.79412 0.0154887 2.69327C0.169119 1.1805 1.4467 0 3 0H7.65218C8.03877 0 8.35218 0.313401 8.35218 0.7V7.64627C8.35218 8.03287 8.03878 8.34627 7.65218 8.34627H0.7ZM3.5389 5.88737C3.5389 6.24635 3.82991 6.53737 4.1889 6.53737C4.54788 6.53737 4.8389 6.24635 4.8389 5.88737V5.03729H5.6889C6.04788 5.03729 6.3389 4.74628 6.3389 4.38729C6.3389 4.02831 6.04788 3.73729 5.6889 3.73729H4.8389V2.88737C4.8389 2.52838 4.54788 2.23737 4.1889 2.23737C3.82991 2.23737 3.5389 2.52838 3.5389 2.88737V3.73729H2.6889C2.32991 3.73729 2.0389 4.02831 2.0389 4.38729C2.0389 4.74628 2.32991 5.03729 2.6889 5.03729H3.5389V5.88737Z" fill="#8A96A8"/>
</svg>
