<svg width="18" height="19" viewBox="0 0 18 19" fill="none" xmlns="http://www.w3.org/2000/svg">
<path d="M11.0093 3.64047C11.0093 5.1024 8.54684 6.28753 5.50928 6.28753C2.47171 6.28753 0.00927734 5.1024 0.00927734 3.64047C0.00927734 2.17854 2.47171 0.993408 5.50928 0.993408C8.54684 0.993408 11.0093 2.17854 11.0093 3.64047Z" fill="#8A96A8"/>
<path d="M17.9501 10.3237C17.9501 11.7857 15.4876 12.9708 12.4501 12.9708C9.41249 12.9708 6.95006 11.7857 6.95006 10.3237C6.95006 8.86179 9.41249 7.67667 12.4501 7.67667C15.4876 7.67667 17.9501 8.86179 17.9501 10.3237Z" fill="#8A96A8"/>
<path d="M7.09701 13.2673C7.32289 12.9883 7.73218 12.9452 8.0112 13.1711C8.29526 13.401 9.77862 14.4643 12.4456 14.4643C15.1295 14.4643 16.5489 13.4772 16.8771 13.1883C17.1466 12.9512 17.5573 12.9774 17.7945 13.2469C18.0317 13.5164 18.0054 13.9271 17.7359 14.1643C17.182 14.6518 15.4607 15.7643 12.4456 15.7643C9.4134 15.7643 7.65024 14.5515 7.19324 14.1815C6.91422 13.9556 6.87114 13.5463 7.09701 13.2673Z" fill="#8A96A8"/>
<path d="M8.0112 15.8206C7.73218 15.5947 7.32289 15.6378 7.09701 15.9168C6.87114 16.1958 6.91422 16.6051 7.19324 16.831C7.64183 17.1941 9.45842 18.475 12.499 18.475C15.5338 18.475 17.1983 17.2869 17.7359 16.8137C18.0054 16.5766 18.0317 16.1659 17.7945 15.8964C17.5573 15.6269 17.1466 15.6007 16.8771 15.8378C16.5325 16.141 15.1633 17.175 12.499 17.175C9.84047 17.175 8.30366 16.0573 8.0112 15.8206Z" fill="#8A96A8"/>
<path d="M1.07042 6.48786C0.791403 6.26199 0.382107 6.30507 0.156234 6.58409C-0.0696397 6.86311 -0.0265571 7.27241 0.252462 7.49828C0.709456 7.86823 2.47262 9.08103 5.50478 9.08103C5.86376 9.08103 6.15478 8.79001 6.15478 8.43103C6.15478 8.07204 5.86376 7.78103 5.50478 7.78103C2.83784 7.78103 1.35448 6.71782 1.07042 6.48786Z" fill="#8A96A8"/>
<path d="M0.156234 9.23351C0.382107 8.95449 0.791403 8.91141 1.07042 9.13728C1.36288 9.37403 2.89969 10.4917 5.55821 10.4917C5.91719 10.4917 6.20821 10.7828 6.20821 11.1417C6.20821 11.5007 5.91719 11.7917 5.55821 11.7917C2.51764 11.7917 0.701054 10.5108 0.252462 10.1477C-0.0265571 9.92182 -0.0696397 9.51252 0.156234 9.23351Z" fill="#8A96A8"/>
<path d="M1.07042 11.8779C0.791403 11.6521 0.382107 11.6951 0.156234 11.9742C-0.0696397 12.2532 -0.0265571 12.6625 0.252462 12.8884C0.701054 13.2515 2.51764 14.5324 5.55821 14.5324C5.91719 14.5324 6.20821 14.2414 6.20821 13.8824C6.20821 13.5234 5.91719 13.2324 5.55821 13.2324C2.89969 13.2324 1.36288 12.1147 1.07042 11.8779Z" fill="#8A96A8"/>
</svg>
