<svg width="15" height="13" viewBox="0 0 15 13" fill="none" xmlns="http://www.w3.org/2000/svg">
<path d="M7.0201 12.1482C7.1501 12.2882 7.3201 12.3582 7.5001 12.3582C7.6601 12.3582 7.8101 12.3082 7.9401 12.1882L13.9801 6.69817C14.2901 6.41817 14.2901 5.93817 13.9801 5.65817L7.9401 0.168174C7.6701 -0.0718255 7.2601 -0.0518256 7.0201 0.208174C6.7801 0.478174 6.7901 0.888175 7.0601 1.12817L11.8957 5.52817H1.0001C0.641113 5.52817 0.350098 5.81919 0.350098 6.17817C0.350098 6.53716 0.641113 6.82817 1.0001 6.82817H11.8957L7.0601 11.2282C6.8001 11.4682 6.7801 11.8782 7.0201 12.1482Z" fill="#0A54C2"/>
</svg>
