<svg width="19" height="17" viewBox="0 0 19 17" fill="none" xmlns="http://www.w3.org/2000/svg">
<path d="M8.99987 0.015625C7.53631 0.015625 6.34987 1.20207 6.34987 2.66563C6.34987 3.02461 6.64088 3.31563 6.99987 3.31563C7.35885 3.31563 7.64987 3.02461 7.64987 2.66563C7.64987 1.92004 8.25428 1.31563 8.99987 1.31563H10.9999C11.7455 1.31563 12.3499 1.92004 12.3499 2.66563C12.3499 3.02461 12.6409 3.31563 12.9999 3.31563C13.3589 3.31563 13.6499 3.02461 13.6499 2.66563C13.6499 1.20207 12.4634 0.015625 10.9999 0.015625H8.99987Z" fill="#8A96A8"/>
<path d="M0.995117 7.46684C0.995117 5.80684 2.33512 4.46684 3.99512 4.46684L15.9991 4.46683C17.6491 4.46683 18.9991 5.80683 18.9991 7.46683L18.9988 9.037C18.9988 9.56966 18.782 10.0794 18.3984 10.4489C18.0331 10.8006 17.5458 10.9971 17.0388 10.9971H2.96808C2.45725 10.9971 1.96632 10.799 1.59853 10.4445C1.22326 10.0828 1.00676 9.58774 0.995117 9.06785V7.46684Z" fill="#8A96A8"/>
<path d="M17.6754 12.2911C18.2523 12.2679 18.9991 12.726 18.9991 13.3033V13.9989C18.9991 15.6589 17.6591 16.9989 15.9991 16.9989H3.99512C2.33512 16.9989 0.995117 15.6589 0.995117 13.9989V13.3003C0.995117 12.7224 1.74308 12.2654 2.32048 12.2902C2.49682 12.2978 2.67674 12.2975 2.85854 12.2972L2.96808 12.2971H5.34987V13.9093C5.34987 14.2683 5.64088 14.5593 5.99987 14.5593C6.35885 14.5593 6.64987 14.2683 6.64987 13.9093V12.2971H13.3499V13.9077C13.3499 14.2667 13.6409 14.5577 13.9999 14.5577C14.3589 14.5577 14.6499 14.2667 14.6499 13.9077V12.2971H17.0388L17.1574 12.2972C17.3323 12.2976 17.5056 12.298 17.6754 12.2911Z" fill="#8A96A8"/>
</svg>
