<svg width="16" height="16" viewBox="0 0 16 16" fill="none" xmlns="http://www.w3.org/2000/svg">
<path fill-rule="evenodd" clip-rule="evenodd" d="M8.54167 3.0588L8.54167 1.02922C8.54167 0.730062 8.29915 0.487549 8 0.487549C7.70085 0.487549 7.45833 0.730062 7.45833 1.02922V3.0588C6.33804 3.30627 5.5 4.30525 5.5 5.49996C5.5 6.88067 6.61929 7.99996 8 7.99996C9.38071 7.99996 10.5 6.88067 10.5 5.49996C10.5 4.30525 9.66196 3.30627 8.54167 3.0588ZM8 4.08329C8.7824 4.08329 9.41667 4.71756 9.41667 5.49996C9.41667 6.28236 8.7824 6.91663 8 6.91663C7.2176 6.91663 6.58333 6.28236 6.58333 5.49996C6.58333 4.71756 7.2176 4.08329 8 4.08329Z" fill="#0D69F2"/>
<path d="M8.54167 14.9683C8.54167 15.2674 8.29915 15.5099 8 15.5099C7.70085 15.5099 7.45833 15.2674 7.45833 14.9683V10.0809C7.45833 9.78172 7.70085 9.53921 8 9.53921C8.29915 9.53921 8.54167 9.78172 8.54167 10.0809V14.9683Z" fill="#0D69F2"/>
<path d="M3 6.47668C3.29915 6.47668 3.54167 6.23417 3.54167 5.93501L3.54167 1.02923C3.54167 0.730076 3.29915 0.487563 3 0.487563C2.70085 0.487563 2.45833 0.730076 2.45833 1.02923V5.93501C2.45833 6.23417 2.70085 6.47668 3 6.47668Z" fill="#0D69F2"/>
<path d="M13.5417 1.02924C13.5417 0.730087 13.2992 0.487574 13 0.487574C12.7008 0.487574 12.4583 0.730087 12.4583 1.02924V5.93742C12.4583 6.23657 12.7008 6.47909 13 6.47909C13.2992 6.47909 13.5417 6.23657 13.5417 5.93742V1.02924Z" fill="#0D69F2"/>
<path fill-rule="evenodd" clip-rule="evenodd" d="M13.5417 12.9411C14.662 12.6937 15.5 11.6947 15.5 10.5C15.5 9.11925 14.3807 7.99996 13 7.99996C11.6193 7.99996 10.5 9.11925 10.5 10.5C10.5 11.6947 11.338 12.6937 12.4583 12.9411V14.9683C12.4583 15.2675 12.7008 15.51 13 15.51C13.2992 15.51 13.5417 15.2675 13.5417 14.9683V12.9411ZM14.4167 10.5C14.4167 11.2824 13.7824 11.9166 13 11.9166C12.2176 11.9166 11.5833 11.2824 11.5833 10.5C11.5833 9.71756 12.2176 9.08329 13 9.08329C13.7824 9.08329 14.4167 9.71756 14.4167 10.5Z" fill="#0D69F2"/>
<path fill-rule="evenodd" clip-rule="evenodd" d="M3 15.51C3.29915 15.51 3.54167 15.2674 3.54167 14.9683V12.9387C4.66196 12.6913 5.5 11.6923 5.5 10.4976C5.5 9.11686 4.38071 7.99757 3 7.99757C1.61929 7.99757 0.5 9.11686 0.5 10.4976C0.5 11.6923 1.33804 12.6913 2.45833 12.9387V14.9683C2.45833 15.2674 2.70085 15.51 3 15.51ZM4.41667 10.4976C4.41667 9.71517 3.7824 9.0809 3 9.0809C2.2176 9.0809 1.58333 9.71517 1.58333 10.4976C1.58333 11.28 2.2176 11.9142 3 11.9142C3.7824 11.9142 4.41667 11.28 4.41667 10.4976Z" fill="#0D69F2"/>
</svg>
