<svg width="18" height="18" viewBox="0 0 18 18" fill="none" xmlns="http://www.w3.org/2000/svg">
<path fill-rule="evenodd" clip-rule="evenodd" d="M0 9C0 4.02944 4.02944 0 9 0C13.9706 0 18 4.02944 18 9C18 13.9706 13.9706 18 9 18C4.02944 18 0 13.9706 0 9ZM3.3 7.69995C4.01797 7.69995 4.6 8.28198 4.6 8.99995C4.6 9.71792 4.01797 10.3 3.3 10.3C2.58203 10.3 2 9.71792 2 8.99995C2 8.28198 2.58203 7.69995 3.3 7.69995ZM14.3 7.69995C15.018 7.69995 15.6 8.28198 15.6 8.99995C15.6 9.71792 15.018 10.3 14.3 10.3C13.582 10.3 13 9.71792 13 8.99995C13 8.28198 13.582 7.69995 14.3 7.69995ZM9 7.70001C9.71797 7.70001 10.3 8.28204 10.3 9.00001C10.3 9.71798 9.71797 10.3 9 10.3C8.28203 10.3 7.7 9.71798 7.7 9.00001C7.7 8.28204 8.28203 7.70001 9 7.70001Z" fill="#8A96A8"/>
</svg>
